mtllib mario.mtl
g test nocull lighting
v -18 -38 0
vt 0 0
vn 0 0 1
v -22 -36 0
vt 0 0
vn 0 0 1
v -27 -38 0
vt 0 0
vn 0 0 1
v -14 -56 0
vt 0 0
vn 0 0 1
v -30 -46 0
vt 0 0
vn 0 0 1
v -15 -66 0
vt 0 0
vn 0 0 1
v -31 -56 0
vt 0 0
vn 0 0 1
v -18 -73 0
vt 0 0
vn 0 0 1
v -30 -66 0
vt 0 0
vn 0 0 1
v -22 -75 0
vt 0 0
vn 0 0 1
v -27 -73 0
vt 0 0
vn 0 0 1
v -15 -46 0
vt 0 0
vn 0 0 1
f 12/12/12 11/11/11 10/10/10
f 12/12/12 9/9/9 11/11/11
f 12/12/12 10/10/10 8/8/8
f 12/12/12 7/7/7 9/9/9
f 12/12/12 8/8/8 6/6/6
f 12/12/12 5/5/5 7/7/7
f 12/12/12 6/6/6 4/4/4
f 12/12/12 3/3/3 5/5/5
f 12/12/12 2/2/2 3/3/3
f 12/12/12 1/1/1 2/2/2
v 134 -37 0
vt 0 0
vn 0 0 1
v 138 -22 0
vt 0 0
vn 0 0 1
v 139 -4 0
vt 0 0
vn 0 0 1
v 94 -65 0
vt 0 0
vn 0 0 1
v -110 -62 0
vt 0 0
vn 0 0 1
v -121 -56 0
vt 0 0
vn 0 0 1
v -130 -48 0
vt 0 0
vn 0 0 1
v -136 -37 0
vt 0 0
vn 0 0 1
v -141 -22 0
vt 0 0
vn 0 0 1
v -142 -4 0
vt 0 0
vn 0 0 1
v -137 35 0
vt 0 0
vn 0 0 1
v -123 69 0
vt 0 0
vn 0 0 1
v -101 99 0
vt 0 0
vn 0 0 1
v -72 121 0
vt 0 0
vn 0 0 1
v -39 136 0
vt 0 0
vn 0 0 1
v -1 141 0
vt 0 0
vn 0 0 1
v 36 136 0
vt 0 0
vn 0 0 1
v 70 121 0
vt 0 0
vn 0 0 1
v 98 99 0
vt 0 0
vn 0 0 1
v 120 69 0
vt 0 0
vn 0 0 1
v 83 -93 0
vt 0 0
vn 0 0 1
v 85 -80 0
vt 0 0
vn 0 0 1
v 82 -60 0
vt 0 0
vn 0 0 1
v 72 -46 0
vt 0 0
vn 0 0 1
v 58 -37 0
vt 0 0
vn 0 0 1
v 40 -31 0
vt 0 0
vn 0 0 1
v 20 -28 0
vt 0 0
vn 0 0 1
v -1 -27 0
vt 0 0
vn 0 0 1
v -23 -28 0
vt 0 0
vn 0 0 1
v -43 -31 0
vt 0 0
vn 0 0 1
v -61 -37 0
vt 0 0
vn 0 0 1
v 134 35 0
vt 0 0
vn 0 0 1
f 44/44/44 43/43/43 42/42/42
f 44/44/44 42/42/42 41/41/41
f 44/44/44 41/41/41 40/40/40
f 44/44/44 40/40/40 39/39/39
f 44/44/44 39/39/39 38/38/38
f 44/44/44 38/38/38 37/37/37
f 44/44/44 37/37/37 36/36/36
f 44/44/44 36/36/36 35/35/35
f 44/44/44 35/35/35 34/34/34
f 44/44/44 34/34/34 33/33/33
f 43/43/43 44/44/44 32/32/32
f 43/43/43 32/32/32 31/31/31
f 43/43/43 31/31/31 30/30/30
f 43/43/43 30/30/30 29/29/29
f 43/43/43 29/29/29 28/28/28
f 43/43/43 28/28/28 27/27/27
f 43/43/43 27/27/27 26/26/26
f 43/43/43 26/26/26 25/25/25
f 43/43/43 25/25/25 24/24/24
f 43/43/43 24/24/24 23/23/23
f 43/43/43 23/23/23 22/22/22
f 43/43/43 22/22/22 21/21/21
f 43/43/43 21/21/21 20/20/20
f 43/43/43 20/20/20 19/19/19
f 43/43/43 19/19/19 18/18/18
f 43/43/43 18/18/18 17/17/17
f 16/16/16 44/44/44 33/33/33
f 16/16/16 15/15/15 44/44/44
f 16/16/16 14/14/14 15/15/15
f 16/16/16 13/13/13 14/14/14
v -85 -93 0
vt 0 0
vn 0 0 1
v -78 -102 0
vt 0 0
vn 0 0 1
v -66 -108 0
vt 0 0
vn 0 0 1
v -49 -112 0
vt 0 0
vn 0 0 1
v -66 -120 0
vt 0 0
vn 0 0 1
v -45 -124 0
vt 0 0
vn 0 0 1
v -23 -126 0
vt 0 0
vn 0 0 1
v -1 -126 0
vt 0 0
vn 0 0 1
v 20 -126 0
vt 0 0
vn 0 0 1
v 42 -124 0
vt 0 0
vn 0 0 1
v -83 -112 0
vt 0 0
vn 0 0 1
v -28 -114 0
vt 0 0
vn 0 0 1
v -1 -115 0
vt 0 0
vn 0 0 1
v 25 -114 0
vt 0 0
vn 0 0 1
v 46 -112 0
vt 0 0
vn 0 0 1
v 63 -108 0
vt 0 0
vn 0 0 1
v 75 -102 0
vt 0 0
vn 0 0 1
v 80 -112 0
vt 0 0
vn 0 0 1
v 92 -99 0
vt 0 0
vn 0 0 1
v 96 -80 0
vt 0 0
vn 0 0 1
v 96 -77 0
vt 0 0
vn 0 0 1
v 63 -120 0
vt 0 0
vn 0 0 1
v 96 -72 0
vt 0 0
vn 0 0 1
v 95 -70 0
vt 0 0
vn 0 0 1
v 95 -67 0
vt 0 0
vn 0 0 1
v 96 -75 0
vt 0 0
vn 0 0 1
v 107 -62 0
vt 0 0
vn 0 0 1
v 118 -56 0
vt 0 0
vn 0 0 1
v 127 -48 0
vt 0 0
vn 0 0 1
f 16/16/16 73/73/73 13/13/13
f 16/16/16 72/72/72 73/73/73
f 16/16/16 71/71/71 72/72/72
f 70/70/70 16/16/16 33/33/33
f 70/70/70 69/69/69 16/16/16
f 70/70/70 68/68/68 69/69/69
f 70/70/70 67/67/67 68/68/68
f 66/66/66 70/70/70 33/33/33
f 66/66/66 65/65/65 70/70/70
f 66/66/66 64/64/64 65/65/65
f 66/66/66 63/63/63 64/64/64
f 66/66/66 62/62/62 63/63/63
f 66/66/66 33/33/33 61/61/61
f 66/66/66 61/61/61 60/60/60
f 66/66/66 60/60/60 59/59/59
f 66/66/66 59/59/59 58/58/58
f 66/66/66 58/58/58 57/57/57
f 66/66/66 57/57/57 56/56/56
f 55/55/55 66/66/66 56/56/56
f 55/55/55 54/54/54 66/66/66
f 55/55/55 53/53/53 54/54/54
f 55/55/55 52/52/52 53/53/53
f 55/55/55 51/51/51 52/52/52
f 55/55/55 50/50/50 51/51/51
f 55/55/55 49/49/49 50/50/50
f 55/55/55 56/56/56 48/48/48
f 55/55/55 48/48/48 47/47/47
f 55/55/55 47/47/47 46/46/46
f 55/55/55 46/46/46 45/45/45
v -75 -46 0
vt 0 0
vn 0 0 1
v -84 -60 0
vt 0 0
vn 0 0 1
v -97 -67 0
vt 0 0
vn 0 0 1
v -98 -70 0
vt 0 0
vn 0 0 1
v -98 -72 0
vt 0 0
vn 0 0 1
v -99 -75 0
vt 0 0
vn 0 0 1
v -99 -77 0
vt 0 0
vn 0 0 1
v -99 -80 0
vt 0 0
vn 0 0 1
v -95 -99 0
vt 0 0
vn 0 0 1
v -97 -65 0
vt 0 0
vn 0 0 1
v -88 -80 0
vt 0 0
vn 0 0 1
f 55/55/55 45/45/45 84/84/84
f 84/84/84 83/83/83 55/55/55
f 83/83/83 82/82/82 55/55/55
f 83/83/83 81/81/81 82/82/82
f 83/83/83 80/80/80 81/81/81
f 83/83/83 79/79/79 80/80/80
f 83/83/83 78/78/78 79/79/79
f 83/83/83 77/77/77 78/78/78
f 83/83/83 76/76/76 77/77/77
f 84/84/84 75/75/75 83/83/83
f 75/75/75 74/74/74 83/83/83
f 74/74/74 5/5/5 83/83/83
f 74/74/74 0/0/0 5/5/5
v 24 -38 0
vt 0 0
vn 0 0 1
v 20 -36 0
vt 0 0
vn 0 0 1
v 15 -38 0
vt 0 0
vn 0 0 1
v 28 -56 0
vt 0 0
vn 0 0 1
v 12 -46 0
vt 0 0
vn 0 0 1
v 27 -66 0
vt 0 0
vn 0 0 1
v 11 -56 0
vt 0 0
vn 0 0 1
v 24 -73 0
vt 0 0
vn 0 0 1
v 12 -66 0
vt 0 0
vn 0 0 1
v 20 -75 0
vt 0 0
vn 0 0 1
v 15 -73 0
vt 0 0
vn 0 0 1
v 27 -46 0
vt 0 0
vn 0 0 1
f 96/96/96 95/95/95 94/94/94
f 96/96/96 93/93/93 95/95/95
f 96/96/96 94/94/94 92/92/92
f 96/96/96 91/91/91 93/93/93
f 96/96/96 92/92/92 90/90/90
f 96/96/96 89/89/89 91/91/91
f 96/96/96 90/90/90 88/88/88
f 96/96/96 87/87/87 89/89/89
f 96/96/96 86/86/86 87/87/87
f 96/96/96 85/85/85 86/86/86
